# written by convert_mb_to_amc()
:FULLY-SPECIFIED
:DEGREES
32
upperback -2.768070 -0.234417 -0.304844
rfoot -25.241108 -12.775868
lradius 32.454887
lthumb 0.765807 61.717247
rradius 26.940336
lwrist -7.126544
rhand -34.475845 -5.401305
rhumerus -46.512642 -5.520163 -84.671295
lowerneck -6.660676 -1.595244 2.250193
lhand -25.772171 31.738892
ltibia 39.948833
head 3.202665 -1.135481 -0.866679
rwrist 7.076293
lfingers 7.125020
rtoes -1.543619
lowerback 0.070644 -0.099607 -1.068519
rfingers 7.125020
lclavicle -0.000000 -0.000000
upperneck 6.438482 -2.294179 -1.109936
rfemur -18.436279 8.223112 21.619236
thorax -2.877016 -0.127593 0.293343
rclavicle -0.000000 -0.000000
rtibia 42.637787
lfoot -23.287849 -1.346055
lhumerus -42.674313 1.674068 79.421204
rthumb -7.638866 -35.243328
root 6.717591 19.119989 -20.800053 -175.191681 -0.864880 -179.926270
ltoes 6.454090
lfemur -17.760485 -4.602842 -20.774881
33
upperback -2.395831 0.374231 -0.193701
rfoot -23.852257 -12.474267
lradius 24.430851
lthumb 2.462274 60.073841
rradius 27.682301
lwrist -11.767580
rhand -34.215195 -4.769209
rhumerus -46.965591 -8.472592 -84.092476
lowerneck -5.735687 -1.796750 2.701746
lhand -24.015615 30.108337
ltibia 39.273266
head 3.046838 -1.207868 -0.853697
rwrist 7.337128
lfingers 7.125020
rtoes -2.820247
lowerback -1.297719 0.229018 -0.841881
rfingers 7.125020
lclavicle -0.000000 0.000000
upperneck 6.521097 -2.541749 -0.841043
rfemur -18.810457 9.768645 20.570715
thorax -1.730287 0.229837 0.271423
rclavicle -0.000000 0.000000
rtibia 42.532227
lfoot -22.667728 -1.041615
lhumerus -45.603474 9.626781 72.697823
rthumb -7.387290 -34.620220
root 6.148442 19.154606 -20.692879 -175.384094 1.030789 -178.964249
ltoes 9.040101
lfemur -17.575674 -3.662662 -21.745338
34
upperback -0.280571 -1.383593 1.756511
rfoot 22.393257 -8.709873
lradius 31.407164
lthumb 2.684267 61.488373
rradius 28.761539
lwrist -8.840359
rhand -33.240986 -4.476935
rhumerus -54.009747 -7.841008 -73.638985
lowerneck -3.263736 -0.439013 3.373662
lhand -23.785786 31.525942
ltibia -0.000000
head 2.108600 -0.286791 -1.239209
rwrist 9.477098
lfingers 7.125020
rtoes 23.558960
lowerback 5.584808 -1.303096 3.333182
rfingers 7.125020
lclavicle 0.000000 -0.000000
upperneck 4.968534 -0.626071 -2.027218
rfemur -79.169350 1.728824 15.732453
thorax -3.460448 -0.702634 0.059071
rclavicle 0.000000 -0.000000
rtibia 34.597015
lfoot -1.166589 6.888330
lhumerus -39.325153 5.965247 68.181953
rthumb -6.446862 -34.358616
root 5.750358 20.343067 -20.352039 -180.715607 0.486621 -173.606750
ltoes 5.534785
lfemur 6.823429 -9.916156 -18.081730
35
upperback 0.826644 0.322801 2.916797
rfoot 30.056643 1.526606
lradius 30.112608
lthumb 3.211005 58.533058
rradius 26.324112
lwrist -9.600392
rhand -36.010773 -11.689937
rhumerus -56.820992 -10.754782 -69.412254
lowerneck -4.391410 -1.502833 3.415071
lhand -23.240320 28.577526
ltibia -0.000000
head 2.561260 -1.080621 -1.226536
rwrist 11.880453
lfingers 7.125020
rtoes -30.989567
lowerback 10.175174 -0.149862 5.527220
rfingers 7.125020
lclavicle -0.000000 0.000000
upperneck 5.845183 -2.177461 -1.739883
rfemur -90.662056 0.199999 11.153869
thorax -4.827567 -0.035730 -0.098449
rclavicle -0.000000 0.000000
rtibia 35.798634
lfoot 0.491543 12.537909
lhumerus -41.323887 1.484064 71.539246
rthumb -9.120181 -41.472691
root 5.868332 20.597528 -19.848667 -186.159790 0.413359 -170.426743
ltoes 7.747733
lfemur 11.058982 -7.892487 -16.044554
36
upperback -0.346386 0.075554 1.174011
rfoot 39.398319 -7.041289
lradius 24.766201
lthumb 4.809445 59.330540
rradius 30.407373
lwrist -13.399281
rhand -32.890942 -9.967826
rhumerus -54.537365 -11.861534 -73.598801
lowerneck -4.597353 -1.362811 3.486827
lhand -21.585041 29.405130
ltibia 46.327190
head 1.974402 -0.964677 -1.150721
rwrist 9.686466
lfingers 7.125020
rtoes 32.694328
lowerback 7.412662 -0.232083 3.191018
rfingers 7.125020
lclavicle 0.000000 -0.000000
upperneck 3.937352 -1.967697 -1.560353
rfemur -72.340622 -1.789908 26.400667
thorax -4.520123 -0.002641 -0.585381
rclavicle 0.000000 -0.000000
rtibia 119.031242
lfoot -21.205400 4.370896
lhumerus -43.150997 9.898368 66.235374
rthumb -6.108935 -39.859741
root 6.038183 18.887205 -18.942745 -180.270691 0.294264 -174.865479
ltoes 12.480272
lfemur -21.847799 -2.004659 -19.223104
37
upperback -0.347587 -0.707486 0.866754
rfoot 38.708302 -4.289237
lradius 28.835955
lthumb 4.317593 58.584152
rradius 30.328348
lwrist -10.661939
rhand -32.525574 -9.338320
rhumerus -51.312542 -13.005875 -76.376419
lowerneck -4.856164 -1.255884 3.922201
lhand -22.094435 28.648193
ltibia 55.269062
head 2.118505 -0.906359 -1.551474
rwrist 10.271015
lfingers 7.125020
rtoes 34.640846
lowerback 6.955468 -0.694568 2.567057
rfingers 7.125020
lclavicle -0.000000 -0.000000
upperneck 4.237040 -1.813519 -2.554865
rfemur -77.104393 -1.829429 25.542339
thorax -4.283237 -0.411848 -0.468761
rclavicle -0.000000 -0.000000
rtibia 125.434731
lfoot -25.021168 2.943253
lhumerus -39.086262 5.766592 74.205872
rthumb -5.756181 -39.240116
root 6.039991 18.307117 -19.158834 -178.484848 -1.457023 -176.749466
ltoes 7.020986
lfemur -27.904697 0.361364 -21.720741
38
upperback -0.659420 -1.967644 1.079492
rfoot 29.219204 -1.511731
lradius 26.888193
lthumb 5.064516 58.947624
rradius 27.211250
lwrist -12.538074
rhand -31.926334 -7.732031
rhumerus -55.183746 -10.725729 -72.237053
lowerneck -3.545701 0.915610 4.673165
lhand -21.320902 29.028173
ltibia 57.100506
head 2.364300 0.630776 -2.544610
rwrist 10.969463
lfingers 7.125020
rtoes 25.960648
lowerback 6.124955 -1.633430 1.875946
rfingers 7.125020
lclavicle -0.000000 0.000000
upperneck 5.191792 1.325526 -5.431708
rfemur -59.247528 4.975616 21.850254
thorax -4.142928 -0.995797 0.252066
rclavicle -0.000000 0.000000
rtibia 106.622322
lfoot -29.269363 7.137941
lhumerus -41.566372 6.249084 72.354523
rthumb -5.177615 -37.648785
root 6.136888 18.121613 -19.993271 -178.418930 1.736953 -178.007141
ltoes 2.159427
lfemur -25.460415 0.962557 -22.971704
39
upperback -0.611156 -4.629161 0.566261
rfoot -24.247116 14.029780
lradius 23.564375
lthumb 6.075852 58.114971
rradius 24.896761
lwrist -12.091173
rhand -32.817127 -8.222140
rhumerus -56.324986 -6.145319 -70.021614
lowerneck -4.756010 3.522310 6.090666
lhand -20.273401 28.222084
ltibia 59.451962
head 3.096543 2.356915 -3.442023
rwrist 12.721442
lfingers 7.125020
rtoes 8.760466
lowerback 4.474053 -3.451221 -0.836118
rfingers 7.125020
lclavicle -0.000000 0.000000
upperneck 5.658399 4.880289 -7.655250
rfemur -34.060787 18.340189 19.351036
thorax -3.018670 -2.285663 1.369399
rclavicle -0.000000 0.000000
rtibia 62.402798
lfoot -30.381420 1.293079
lhumerus -38.696899 4.837327 70.157120
rthumb -6.037662 -38.116100
root 7.123514 18.059736 -21.487082 -177.164673 3.020357 -179.524490
ltoes -8.905438
lfemur -22.337631 3.483845 -20.030931
